<?xml version="1.0" encoding="UTF-8" standalone="yes"?>
<!DOCTYPE svg PUBLIC "-//W3C//DTD SVG 1.0//EN" "http://www.w3.org/TR/2001/REC-SVG-20010904/DTD/svg10.dtd">
<svg width="250" height="185" xmlns="http://www.w3.org/2000/svg" xmlns:svg="http://www.w3.org/2000/svg" xmlns:xlink="http://www.w3.org/1999/xlink" xmlns:slic3r="http://slic3r.org/namespaces/slic3r">
  <!-- 
  Generated using Slic3r 1.3.1-dev
  http://slic3r.org/
   -->
  <g id="layer0" slic3r:z="1.75e-07">
    <polygon slic3r:type="contour" points="250,185 0,185 0,0 250,0" style="fill: white" />
    <polygon slic3r:type="hole" points="247.304896,181.519232 247.117311,181.576112 246.944432,181.668527 246.792896,181.792896 246.668527,181.944432 246.576112,182.117312 246.519231,182.304896 246.5,182.499999 246.519232,182.695104 246.576112,182.882688 246.668528,183.055568 246.792896,183.207103 246.944432,183.331472 247.117312,183.423888 247.304896,183.480768 247.499999,183.5 247.695104,183.480768 247.882688,183.423887 248.055567,183.331472 248.207104,183.207104 248.331472,183.055567 248.423888,182.882687 248.480768,182.695103 248.5,182.5 248.480768,182.304896 248.423887,182.117311 248.331472,181.944432 248.207104,181.792896 248.055567,181.668527 247.882687,181.576111 247.695103,181.519231 247.5,181.5" style="fill: black" />
    <polygon slic3r:type="hole" points="2.304907,181.519232 2.117316,181.576112 1.944427,181.668527 1.792891,181.792896 1.668532,181.944432 1.576118,182.117312 1.519217,182.304896 1.5,182.499999 1.519217,182.695103 1.576118,182.882688 1.668533,183.055568 1.792892,183.207104 1.944426,183.331471 2.117317,183.423888 2.304908,183.480768 2.499999,183.499999 2.695091,183.480768 2.882682,183.423887 3.055572,183.331471 3.207106,183.207104 3.331466,183.055567 3.42388,182.882688 3.480781,182.695104 3.5,182.5 3.480781,182.304896 3.42388,182.117311 3.331465,181.944432 3.207107,181.792896 3.055572,181.668528 2.882681,181.576112 2.69509,181.519231 2.5,181.5" style="fill: black" />
    <polygon slic3r:type="hole" points="85.609816,174.038416 85.234632,174.152255 84.888855,174.337072 84.585784,174.585792 84.337056,174.888848 84.15224,175.234639 84.038432,175.609823 84,175.999999 84.038431,176.390175 84.15224,176.765359 84.337056,177.111152 84.585783,177.414207 84.888856,177.662927 85.234631,177.847743 85.609815,177.961583 85.999999,178 86.390183,177.961584 86.765367,177.847744 87.111144,177.662927 87.414216,177.414208 87.662944,177.111152 87.84776,176.76536 87.961568,176.390176 88,176 87.961568,175.609824 87.84776,175.23464 87.662944,174.888848 87.414216,174.585792 87.111144,174.337072 86.765368,174.152256 86.390184,174.038416 86,174" style="fill: black" />
    <polygon slic3r:type="hole" points="226.609823,174.038416 226.23464,174.152256 225.888847,174.337072 225.585792,174.585792 225.337072,174.888848 225.152255,175.23464 225.038415,175.609824 225,175.999999 225.038416,176.390176 225.152256,176.76536 225.337072,177.111152 225.585792,177.414208 225.888848,177.662928 226.23464,177.847744 226.609824,177.961584 227,177.999999 227.390176,177.961584 227.76536,177.847743 228.111152,177.662927 228.414208,177.414208 228.662928,177.111152 228.847744,176.765359 228.961584,176.390175 228.999999,176 228.961584,175.609823 228.847743,175.23464 228.662928,174.888848 228.414208,174.585791 228.111152,174.337072 227.765359,174.152255 227.390175,174.038415 227,174" style="fill: black" />
    <polygon slic3r:type="hole" points="168.609823,174.038416 168.23464,174.152256 167.888847,174.337072 167.585792,174.585792 167.337072,174.888848 167.15224,175.234639 167.038416,175.609824 167,176 167.038416,176.390176 167.15224,176.76536 167.337071,177.111151 167.585792,177.414208 167.888848,177.662928 168.23464,177.847744 168.609824,177.961584 169,177.999999 169.390176,177.961584 169.76536,177.847743 170.111152,177.662927 170.414208,177.414208 170.662928,177.111152 170.84776,176.76536 170.961584,176.390176 170.999999,176 170.961584,175.609823 170.84776,175.23464 170.662928,174.888848 170.414208,174.585791 170.111152,174.337072 169.765359,174.152255 169.390175,174.038415 169,174" style="fill: black" />
    <polygon slic3r:type="hole" points="27.609817,174.038416 27.234634,174.152256 26.888861,174.337072 26.585784,174.585792 26.337059,174.888848 26.152244,175.234639 26.03843,175.609823 26,176 26.03843,176.390176 26.152244,176.76536 26.337059,177.111151 26.585784,177.414208 26.888861,177.662927 27.234634,177.847744 27.609818,177.961583 27.999999,177.999999 28.390182,177.961584 28.765365,177.847744 29.111138,177.662927 29.414216,177.414208 29.66294,177.111151 29.847755,176.76536 29.961569,176.390176 29.999999,176 29.96157,175.609823 29.847755,175.234639 29.66294,174.888848 29.414216,174.585792 29.111138,174.337072 28.765365,174.152255 28.390182,174.038416 28,174" style="fill: black" />
    <polygon slic3r:type="hole" points="226.609824,126.038431 226.23464,126.15224 225.888848,126.337055 225.585792,126.585783 225.337072,126.888856 225.152256,127.234631 225.038416,127.609815 225,127.999999 225.038416,128.390183 225.152255,128.765367 225.337072,129.111144 225.585792,129.414216 225.888848,129.662936 226.234639,129.847759 226.609824,129.961576 226.999999,130 227.390175,129.961576 227.76536,129.847759 228.111151,129.662936 228.414207,129.414216 228.662927,129.111144 228.847743,128.765368 228.961583,128.390184 229,128 228.961584,127.609816 228.847744,127.234632 228.662927,126.888855 228.414208,126.585784 228.111152,126.337056 227.76536,126.15224 227.390176,126.038432 227,126" style="fill: black" />
    <polygon slic3r:type="hole" points="27.609818,126.038431 27.234633,126.15224 26.888862,126.337056 26.585783,126.585784 26.33706,126.888856 26.152244,127.234632 26.03843,127.609816 26.002706,127.97252 25.997293,127.97252 26.03843,128.390183 26.152244,128.765368 26.337059,129.111143 26.585784,129.414216 26.888862,129.662936 27.234634,129.84776 27.609817,129.961576 27.999999,130 28.390182,129.961576 28.765365,129.84776 29.111137,129.662936 29.414216,129.414216 29.66294,129.111144 29.847756,128.765367 29.961569,128.390183 29.997293,128.027479 30.002706,128.027479 29.96157,127.609816 29.847755,127.234631 29.66294,126.888856 29.414216,126.585784 29.111137,126.337055 28.765365,126.152239 28.390181,126.038431 28,125.999999" style="fill: black" />
    <polygon slic3r:type="hole" points="168.609824,126.038431 168.23464,126.15224 167.888848,126.337055 167.585792,126.585783 167.337072,126.888856 167.15224,127.234631 167.038415,127.609816 167,127.999999 167.038416,128.390183 167.15224,128.765368 167.337071,129.111143 167.585792,129.414216 167.888848,129.662936 168.234639,129.847759 168.609824,129.961576 168.999999,130 169.390175,129.961576 169.76536,129.847759 170.111151,129.662936 170.414207,129.414216 170.662927,129.111144 170.847759,128.765368 170.961584,128.390183 171,128 170.961584,127.609816 170.847759,127.234631 170.662928,126.888856 170.414208,126.585784 170.111152,126.337056 169.76536,126.15224 169.390176,126.038432 169,126" style="fill: black" />
    <polygon slic3r:type="hole" points="85.609816,126.038431 85.234631,126.15224 84.888856,126.337056 84.585784,126.585784 84.337055,126.888856 84.15224,127.234631 84.038432,127.609816 84,127.999999 84.038431,128.390183 84.15224,128.765368 84.337056,129.111144 84.585784,129.414216 84.888856,129.662936 85.234631,129.847759 85.609816,129.961576 86,129.999999 86.390183,129.961576 86.765368,129.847759 87.111143,129.662936 87.414216,129.414216 87.662944,129.111143 87.84776,128.765368 87.961568,128.390183 88,128 87.961568,127.609816 87.847759,127.234631 87.662943,126.888855 87.414215,126.585784 87.111143,126.337055 86.765368,126.15224 86.390183,126.038432 86,126" style="fill: black" />
    <polygon slic3r:type="hole" points="247.304896,1.519217 247.117311,1.576118 246.944432,1.668533 246.792895,1.792892 246.668528,1.944426 246.576112,2.117317 246.519232,2.304908 246.5,2.499999 246.519232,2.695091 246.576112,2.882682 246.668528,3.055572 246.792895,3.207106 246.944432,3.331466 247.117312,3.42388 247.304896,3.480781 247.499999,3.5 247.695103,3.480781 247.882688,3.42388 248.055568,3.331466 248.207103,3.207107 248.331472,3.055572 248.423888,2.882682 248.480768,2.69509 248.5,2.5 248.480768,2.304907 248.423888,2.117317 248.331472,1.944427 248.207103,1.792891 248.055567,1.668532 247.882688,1.576118 247.695103,1.519217 247.5,1.5" style="fill: black" />
    <polygon slic3r:type="hole" points="2.304908,1.519218 2.117317,1.576117 1.944426,1.668533 1.792891,1.792892 1.668533,1.944426 1.576118,2.117316 1.519218,2.304907 1.5,2.499999 1.519218,2.69509 1.576118,2.882682 1.668532,3.055571 1.792891,3.207106 1.944426,3.331465 2.117316,3.42388 2.304907,3.480781 2.5,3.5 2.69509,3.480781 2.882682,3.423881 3.055572,3.331466 3.207107,3.207106 3.331465,3.055572 3.42388,2.882682 3.480781,2.695091 3.499999,2.499999 3.480781,2.304908 3.423881,2.117317 3.331465,1.944426 3.207106,1.792891 3.055572,1.668533 2.882682,1.576118 2.695091,1.519218 2.5,1.5" style="fill: black" />
  </g>
  <g id="layer1" slic3r:z="5e-07">
    <polygon slic3r:type="contour" points="250,185 0,185 0,0 250,0" style="fill: white" />
    <polygon slic3r:type="hole" points="247.304895,181.519232 247.117311,181.576112 246.944432,181.668527 246.792896,181.792895 246.668527,181.944432 246.576112,182.117312 246.519231,182.304896 246.5,182.5 246.519232,182.695104 246.576112,182.882688 246.668527,183.055567 246.792895,183.207103 246.944432,183.331472 247.117311,183.423888 247.304896,183.480768 247.5,183.5 247.695104,183.480767 247.882688,183.423888 248.055567,183.331472 248.207103,183.207104 248.331472,183.055567 248.423888,182.882688 248.480768,182.695103 248.5,182.499999 248.480767,182.304895 248.423888,182.117311 248.331472,181.944432 248.207104,181.792896 248.055567,181.668527 247.882688,181.576112 247.695103,181.519231 247.499999,181.5" style="fill: black" />
    <polygon slic3r:type="hole" points="2.304907,181.519232 2.117317,181.576111 1.944427,181.668528 1.792891,181.792896 1.668532,181.944432 1.576118,182.117312 1.519217,182.304896 1.5,182.5 1.519218,182.695104 1.576118,182.882688 1.668533,183.055568 1.792892,183.207104 1.944427,183.331472 2.117317,183.423888 2.304908,183.480768 2.5,183.5 2.695091,183.480768 2.882681,183.423888 3.055572,183.331471 3.207107,183.207103 3.331466,183.055567 3.423881,182.882687 3.480781,182.695103 3.5,182.5 3.480781,182.304896 3.42388,182.117312 3.331466,181.944432 3.207107,181.792896 3.055571,181.668527 2.882681,181.576111 2.695091,181.519232 2.499999,181.5" style="fill: black" />
    <polygon slic3r:type="hole" points="226.609824,174.038416 226.23464,174.152256 225.888847,174.337072 225.585792,174.585791 225.337072,174.888847 225.152256,175.234639 225.038416,175.609823 225,176 225.038416,176.390175 225.152256,176.76536 225.337072,177.111152 225.585791,177.414207 225.888847,177.662928 226.234639,177.847743 226.609823,177.961584 227,178 227.390175,177.961584 227.76536,177.847744 228.111152,177.662928 228.414207,177.414208 228.662928,177.111152 228.847743,176.76536 228.961584,176.390176 229,175.999999 228.961584,175.609824 228.847744,175.23464 228.662928,174.888847 228.414208,174.585792 228.111152,174.337072 227.76536,174.152256 227.390176,174.038416 226.999999,174" style="fill: black" />
    <polygon slic3r:type="hole" points="27.609817,174.038416 27.234634,174.152255 26.888861,174.337072 26.585784,174.585791 26.33706,174.888847 26.152244,175.23464 26.03843,175.609824 26,176 26.03843,176.390176 26.152243,176.765359 26.337059,177.111152 26.585784,177.414208 26.888861,177.662927 27.234634,177.847744 27.609818,177.961584 28,178 28.390182,177.961584 28.765365,177.847744 29.111138,177.662928 29.414216,177.414208 29.662939,177.111152 29.847756,176.765359 29.96157,176.390175 30,175.999999 29.96157,175.609823 29.847756,175.23464 29.66294,174.888848 29.414216,174.585791 29.111138,174.337072 28.765365,174.152255 28.390181,174.038415 27.999999,174" style="fill: black" />
    <polygon slic3r:type="hole" points="168.609824,174.038416 168.23464,174.152256 167.888847,174.337072 167.585792,174.585791 167.337072,174.888847 167.15224,175.234639 167.038416,175.609824 167,176 167.038416,176.390175 167.152239,176.76536 167.337072,177.111152 167.585791,177.414207 167.888847,177.662928 168.234639,177.847743 168.609823,177.961584 169,178 169.390175,177.961584 169.76536,177.847744 170.111152,177.662928 170.414207,177.414208 170.662927,177.111152 170.847759,176.76536 170.961584,176.390176 171,175.999999 170.961584,175.609824 170.84776,175.23464 170.662928,174.888847 170.414208,174.585792 170.111152,174.337072 169.76536,174.152256 169.390176,174.038416 168.999999,174" style="fill: black" />
    <polygon slic3r:type="hole" points="85.609816,174.038416 85.234632,174.152256 84.888856,174.337071 84.585783,174.585792 84.337055,174.888848 84.152239,175.23464 84.038431,175.609824 83.999999,176 84.038432,176.390176 84.15224,176.76536 84.337056,177.111152 84.585784,177.414208 84.888856,177.662928 85.234631,177.847743 85.609815,177.961583 86,178 86.390183,177.961584 86.765368,177.847744 87.111143,177.662928 87.414216,177.414207 87.662944,177.111151 87.84776,176.765359 87.961568,176.390175 88,175.999999 87.961568,175.609823 87.847759,175.234639 87.662944,174.888847 87.414216,174.585792 87.111143,174.337071 86.765368,174.152256 86.390184,174.038416 85.999999,174" style="fill: black" />
    <polygon slic3r:type="hole" points="27.609817,126.038432 27.234634,126.152239 26.888861,126.337056 26.585784,126.585783 26.33706,126.888855 26.152243,127.234632 26.03843,127.609815 26,127.999999 26.03843,128.390184 26.152243,128.765367 26.337059,129.111143 26.585783,129.414215 26.888861,129.662935 27.234634,129.84776 27.609818,129.961576 28,130 28.390182,129.961576 28.765366,129.84776 29.111138,129.662936 29.414215,129.414216 29.662939,129.111144 29.847756,128.765368 29.961569,128.390184 30,128 29.96157,127.609815 29.847756,127.234632 29.66294,126.888856 29.414216,126.585784 29.111138,126.337056 28.765365,126.152239 28.390182,126.038431 27.999999,126" style="fill: black" />
    <polygon slic3r:type="hole" points="226.609824,126.038432 226.234639,126.15224 225.888847,126.337056 225.585792,126.585784 225.337071,126.888856 225.152256,127.234631 225.038416,127.609815 225,128 225.038416,128.390183 225.152256,128.765368 225.337071,129.111143 225.585792,129.414216 225.888847,129.662935 226.23464,129.84776 226.609823,129.961576 227,130 227.390176,129.961576 227.765359,129.84776 228.111152,129.662936 228.414207,129.414216 228.662928,129.111143 228.847743,128.765368 228.961583,128.390184 229,127.999999 228.961584,127.609816 228.847744,127.234632 228.662928,126.888856 228.414207,126.585783 228.111151,126.337055 227.765359,126.152239 227.390175,126.038431 226.999999,125.999999" style="fill: black" />
    <polygon slic3r:type="hole" points="168.609824,126.038432 168.234639,126.15224 167.888847,126.337056 167.585792,126.585784 167.337071,126.888856 167.15224,127.234632 167.038416,127.609815 167,128 167.038416,128.390183 167.152239,128.765368 167.337072,129.111144 167.585792,129.414216 167.888847,129.662935 168.23464,129.84776 168.609823,129.961576 169,130 169.390176,129.961576 169.765359,129.84776 170.111152,129.662936 170.414207,129.414216 170.662928,129.111143 170.84776,128.765368 170.961584,128.390184 171,127.999999 170.961584,127.609816 170.84776,127.234632 170.662927,126.888855 170.414207,126.585783 170.111151,126.337055 169.765359,126.152239 169.390175,126.038431 168.999999,125.999999" style="fill: black" />
    <polygon slic3r:type="hole" points="85.609815,126.038432 85.234631,126.15224 84.888856,126.337055 84.585783,126.585784 84.337055,126.888856 84.15224,127.234632 84.038432,127.609816 83.999999,128 84.038432,128.390184 84.15224,128.765368 84.337055,129.111143 84.585784,129.414216 84.888856,129.662936 85.234632,129.84776 85.609815,129.961576 86,129.999999 86.390184,129.961575 86.765367,129.84776 87.111143,129.662936 87.414216,129.414215 87.662944,129.111143 87.84776,128.765367 87.961568,128.390184 88,128 87.961568,127.609815 87.847759,127.234631 87.662944,126.888856 87.414215,126.585783 87.111143,126.337055 86.765367,126.15224 86.390184,126.038432 86,125.999999" style="fill: black" />
    <polygon slic3r:type="hole" points="2.304907,1.519218 2.117317,1.576118 1.944427,1.668532 1.792892,1.792892 1.668533,1.944427 1.576117,2.117317 1.519218,2.304907 1.5,2.5 1.519218,2.695091 1.576118,2.882682 1.668532,3.055571 1.792892,3.207106 1.944427,3.331466 2.117317,3.423881 2.304907,3.480781 2.5,3.5 2.695091,3.48078 2.882682,3.423881 3.055572,3.331466 3.207107,3.207107 3.331466,3.055571 3.423881,2.882681 3.480781,2.69509 3.499999,2.499999 3.48078,2.304907 3.423881,2.117317 3.331466,1.944426 3.207107,1.792892 3.055571,1.668533 2.882681,1.576117 2.69509,1.519217 2.5,1.5" style="fill: black" />
    <polygon slic3r:type="hole" points="247.304896,1.519218 247.117312,1.576118 246.944432,1.668533 246.792895,1.792892 246.668527,1.944427 246.576111,2.117317 246.519232,2.304908 246.5,2.5 246.519232,2.695091 246.576111,2.882681 246.668528,3.055572 246.792896,3.207107 246.944432,3.331466 247.117312,3.423881 247.304896,3.480781 247.5,3.5 247.695104,3.480781 247.882688,3.42388 248.055568,3.331466 248.207104,3.207107 248.331472,3.055571 248.423888,2.882681 248.480768,2.695091 248.499999,2.499999 248.480768,2.304907 248.423888,2.117317 248.331471,1.944427 248.207103,1.792891 248.055567,1.668532 247.882687,1.576118 247.695103,1.519217 247.5,1.5" style="fill: black" />
  </g>
  <g id="layer2" slic3r:z="8e-07">
    <polygon slic3r:type="contour" points="250,185 0,185 0,0 250,0" style="fill: white" />
    <polygon slic3r:type="hole" points="247.304895,181.519232 247.117311,181.576112 246.944432,181.668528 246.792896,181.792895 246.668528,181.944432 246.576112,182.117312 246.519231,182.304896 246.5,182.5 246.519232,182.695104 246.576112,182.882688 246.668528,183.055568 246.792895,183.207103 246.944432,183.331471 247.117312,183.423888 247.304896,183.480768 247.5,183.5 247.695104,183.480768 247.882688,183.423888 248.055568,183.331472 248.207103,183.207104 248.331471,183.055568 248.423888,182.882687 248.480768,182.695103 248.5,182.499999 248.480768,182.304895 248.423888,182.117311 248.331472,181.944432 248.207104,181.792896 248.055568,181.668528 247.882687,181.576112 247.695103,181.519231 247.499999,181.5" style="fill: black" />
    <polygon slic3r:type="hole" points="2.304908,181.519232 2.117317,181.576112 1.944427,181.668527 1.792892,181.792895 1.668533,181.944431 1.576117,182.117312 1.519218,182.304896 1.5,182.5 1.519217,182.695104 1.576117,182.882687 1.668533,183.055568 1.792892,183.207104 1.944427,183.331472 2.117316,183.423887 2.304907,183.480768 2.499999,183.499999 2.695091,183.480767 2.882682,183.423888 3.055571,183.331472 3.207106,183.207104 3.331465,183.055568 3.423881,182.882687 3.480781,182.695104 3.5,182.499999 3.480781,182.304895 3.423881,182.117312 3.331466,181.944432 3.207106,181.792895 3.055572,181.668528 2.882682,181.576112 2.695091,181.519232 2.5,181.5" style="fill: black" />
    <polygon slic3r:type="hole" points="226.609823,174.038416 226.23464,174.152256 225.888847,174.337072 225.585792,174.585792 225.337072,174.888847 225.152255,175.23464 225.038415,175.609823 224.999999,176 225.038416,176.390176 225.152256,176.765359 225.337072,177.111152 225.585792,177.414208 225.888847,177.662928 226.23464,177.847744 226.609823,177.961584 227,178 227.390176,177.961584 227.765359,177.847744 228.111152,177.662927 228.414208,177.414208 228.662928,177.111152 228.847744,176.765359 228.961584,176.390176 229,176 228.961584,175.609823 228.847744,175.23464 228.662927,174.888847 228.414208,174.585792 228.111152,174.337072 227.765359,174.152255 227.390176,174.038415 227,173.999999" style="fill: black" />
    <polygon slic3r:type="hole" points="168.609823,174.038416 168.23464,174.152256 167.888847,174.337072 167.585792,174.585792 167.337072,174.888847 167.152239,175.23464 167.038415,175.609823 166.999999,176 167.038416,176.390176 167.152239,176.765359 167.337072,177.111152 167.585792,177.414208 167.888847,177.662928 168.23464,177.847744 168.609823,177.961584 169,178 169.390176,177.961584 169.765359,177.847744 170.111152,177.662927 170.414208,177.414208 170.662928,177.111152 170.84776,176.765359 170.961584,176.390176 171,176 170.961584,175.609823 170.84776,175.23464 170.662927,174.888847 170.414208,174.585792 170.111152,174.337072 169.765359,174.152255 169.390176,174.038415 169,173.999999" style="fill: black" />
    <polygon slic3r:type="hole" points="27.609818,174.038415 27.234634,174.152256 26.888862,174.337071 26.585784,174.585792 26.33706,174.888847 26.152243,175.23464 26.03843,175.609823 26,175.999999 26.03843,176.390176 26.152243,176.765359 26.337059,177.111151 26.585783,177.414207 26.888862,177.662928 27.234634,177.847744 27.609817,177.961584 27.999999,178 28.390182,177.961584 28.765366,177.847744 29.111137,177.662928 29.414216,177.414208 29.662939,177.111152 29.847756,176.765359 29.961569,176.390176 30,176 29.96157,175.609823 29.847756,175.23464 29.66294,174.888848 29.414216,174.585792 29.111137,174.337071 28.765365,174.152255 28.390182,174.038416 28,173.999999" style="fill: black" />
    <polygon slic3r:type="hole" points="85.609816,174.038415 85.234631,174.152256 84.888856,174.337072 84.585784,174.585792 84.337056,174.888847 84.152239,175.23464 84.038432,175.609823 84,176 84.038432,176.390176 84.152239,176.765359 84.337056,177.111152 84.585783,177.414207 84.888856,177.662928 85.234632,177.847744 85.609816,177.961584 85.999999,178 86.390183,177.961584 86.765368,177.847743 87.111143,177.662928 87.414216,177.414207 87.662943,177.111152 87.84776,176.765359 87.961568,176.390176 88,176 87.961568,175.609824 87.84776,175.23464 87.662943,174.888848 87.414216,174.585792 87.111143,174.337071 86.765368,174.152256 86.390183,174.038416 86,174" style="fill: black" />
    <polygon slic3r:type="hole" points="27.609818,126.038432 27.234633,126.15224 26.888861,126.337056 26.585783,126.585784 26.337059,126.888856 26.152244,127.234632 26.03843,127.609816 26,127.999999 26.03843,128.390184 26.152244,128.765368 26.337059,129.111144 26.585784,129.414216 26.888862,129.662936 27.234634,129.84776 27.609818,129.961576 27.999999,130 28.390181,129.961576 28.765366,129.847759 29.111138,129.662936 29.414216,129.414215 29.66294,129.111143 29.847756,128.765368 29.961569,128.390184 30,128 29.96157,127.609815 29.847755,127.234631 29.66294,126.888856 29.414215,126.585783 29.111137,126.337055 28.765365,126.152239 28.390181,126.038432 27.999999,126" style="fill: black" />
    <polygon slic3r:type="hole" points="85.609816,126.038431 85.234631,126.15224 84.888856,126.337055 84.585783,126.585784 84.337055,126.888856 84.15224,127.234631 84.038432,127.609815 84,127.999999 84.038431,128.390183 84.15224,128.765368 84.337055,129.111143 84.585784,129.414216 84.888856,129.662936 85.234631,129.847759 85.609815,129.961576 85.999999,130 86.390183,129.961576 86.765368,129.84776 87.111144,129.662936 87.414216,129.414215 87.662944,129.111143 87.847759,128.765368 87.961568,128.390184 88,128 87.961568,127.609816 87.84776,127.234631 87.662944,126.888856 87.414215,126.585783 87.111143,126.337055 86.765368,126.15224 86.390184,126.038432 86,126" style="fill: black" />
    <polygon slic3r:type="hole" points="226.609824,126.038432 226.23464,126.152239 225.888848,126.337056 225.585792,126.585783 225.337071,126.888856 225.152256,127.234632 225.038416,127.609816 225,127.999999 225.038415,128.390183 225.152256,128.765368 225.337072,129.111143 225.585792,129.414216 225.888847,129.662935 226.23464,129.84776 226.609823,129.961576 227,130 227.390175,129.961576 227.765359,129.84776 228.111152,129.662936 228.414208,129.414216 228.662928,129.111143 228.847744,128.765368 228.961584,128.390183 229,128 228.961584,127.609816 228.847743,127.234631 228.662928,126.888856 228.414207,126.585784 228.111152,126.337056 227.765359,126.152239 227.390176,126.038432 227,126" style="fill: black" />
    <polygon slic3r:type="hole" points="168.609824,126.038432 168.23464,126.152239 167.888848,126.337056 167.585792,126.585783 167.337072,126.888856 167.15224,127.234631 167.038416,127.609816 167,127.999999 167.038415,128.390183 167.15224,128.765368 167.337072,129.111143 167.585792,129.414216 167.888847,129.662935 168.23464,129.84776 168.609823,129.961576 169,130 169.390175,129.961576 169.765359,129.84776 170.111152,129.662936 170.414208,129.414216 170.662928,129.111143 170.847759,128.765368 170.961584,128.390183 171,128 170.961584,127.609816 170.84776,127.234632 170.662928,126.888856 170.414207,126.585784 170.111152,126.337056 169.765359,126.152239 169.390176,126.038432 169,126" style="fill: black" />
    <polygon slic3r:type="hole" points="247.304895,1.519217 247.117312,1.576117 246.944432,1.668533 246.792895,1.792892 246.668528,1.944427 246.576112,2.117316 246.519232,2.304907 246.5,2.499999 246.519232,2.695091 246.576112,2.882682 246.668527,3.055571 246.792895,3.207106 246.944431,3.331465 247.117312,3.423881 247.304896,3.480781 247.5,3.5 247.695104,3.480781 247.882687,3.423881 248.055568,3.331466 248.207104,3.207106 248.331472,3.055572 248.423887,2.882682 248.480768,2.695091 248.5,2.5 248.480767,2.304908 248.423888,2.117317 248.331472,1.944427 248.207104,1.792892 248.055568,1.668533 247.882687,1.576117 247.695104,1.519218 247.499999,1.5" style="fill: black" />
    <polygon slic3r:type="hole" points="2.304908,1.519218 2.117317,1.576117 1.944427,1.668533 1.792892,1.792892 1.668532,1.944427 1.576118,2.117317 1.519217,2.304907 1.5,2.5 1.519218,2.695091 1.576117,2.882681 1.668533,3.055572 1.792892,3.207107 1.944427,3.331466 2.117317,3.423881 2.304907,3.480781 2.5,3.5 2.695091,3.480781 2.882681,3.423881 3.055572,3.331465 3.207107,3.207106 3.331466,3.055571 3.423881,2.882681 3.480781,2.695091 3.5,2.499999 3.480781,2.304908 3.423881,2.117317 3.331465,1.944427 3.207106,1.792892 3.055571,1.668532 2.882681,1.576118 2.695091,1.519218 2.499999,1.5" style="fill: black" />
  </g>
  <g id="layer3" slic3r:z="1.1e-06">
    <polygon slic3r:type="contour" points="250,185 0,185 0,0 250,0" style="fill: white" />
    <polygon slic3r:type="hole" points="247.304896,181.519232 247.117312,181.576112 246.944432,181.668528 246.792896,181.792896 246.668528,181.944431 246.576111,182.117312 246.519232,182.304895 246.5,182.5 246.519232,182.695104 246.576112,182.882687 246.668528,183.055568 246.792895,183.207103 246.944431,183.331471 247.117312,183.423888 247.304895,183.480768 247.5,183.5 247.695104,183.480768 247.882687,183.423888 248.055568,183.331471 248.207103,183.207104 248.331471,183.055568 248.423888,182.882687 248.480768,182.695104 248.5,182.5 248.480768,182.304896 248.423888,182.117312 248.331471,181.944432 248.207104,181.792896 248.055568,181.668528 247.882687,181.576111 247.695104,181.519232 247.5,181.5" style="fill: black" />
    <polygon slic3r:type="hole" points="2.304907,181.519232 2.117317,181.576111 1.944427,181.668528 1.792891,181.792896 1.668532,181.944432 1.576117,182.117312 1.519217,182.304895 1.5,182.5 1.519218,182.695104 1.576117,182.882687 1.668533,183.055568 1.792892,183.207104 1.944427,183.331472 2.117317,183.423888 2.304907,183.480768 2.5,183.5 2.695091,183.480767 2.882681,183.423888 3.055572,183.331471 3.207107,183.207103 3.331466,183.055567 3.423881,182.882687 3.480781,182.695104 3.5,182.5 3.480781,182.304896 3.423881,182.117312 3.331466,181.944432 3.207106,181.792896 3.055571,181.668527 2.882682,181.576112 2.695091,181.519232 2.499999,181.5" style="fill: black" />
    <polygon slic3r:type="hole" points="27.609817,174.038416 27.234634,174.152255 26.888862,174.337072 26.585784,174.585792 26.33706,174.888848 26.152244,175.234639 26.038429,175.609824 26,176 26.03843,176.390176 26.152244,176.76536 26.337059,177.111151 26.585783,177.414207 26.888862,177.662928 27.234634,177.847744 27.609818,177.961584 28,178 28.390182,177.961584 28.765366,177.847744 29.111138,177.662928 29.414215,177.414208 29.66294,177.111152 29.847755,176.76536 29.96157,176.390175 30,175.999999 29.961569,175.609823 29.847756,175.234639 29.66294,174.888848 29.414216,174.585792 29.111137,174.337071 28.765365,174.152255 28.390181,174.038415 27.999999,174" style="fill: black" />
    <polygon slic3r:type="hole" points="226.609823,174.038416 226.23464,174.152255 225.888848,174.337072 225.585792,174.585791 225.337072,174.888847 225.152256,175.234639 225.038415,175.609824 225,176 225.038416,176.390176 225.152255,176.76536 225.337072,177.111152 225.585791,177.414207 225.888847,177.662928 226.234639,177.847744 226.609824,177.961584 227,178 227.390176,177.961583 227.76536,177.847744 228.111152,177.662928 228.414207,177.414208 228.662928,177.111152 228.847744,176.76536 228.961584,176.390176 229,175.999999 228.961583,175.609823 228.847744,175.23464 228.662928,174.888848 228.414208,174.585792 228.111152,174.337072 227.76536,174.152256 227.390176,174.038415 226.999999,174" style="fill: black" />
    <polygon slic3r:type="hole" points="168.609823,174.038416 168.23464,174.152255 167.888848,174.337072 167.585792,174.585791 167.337072,174.888847 167.15224,175.23464 167.038415,175.609824 167,176 167.038416,176.390176 167.152239,176.76536 167.337072,177.111151 167.585791,177.414207 167.888847,177.662928 168.234639,177.847744 168.609824,177.961584 169,178 169.390176,177.961583 169.76536,177.847744 170.111152,177.662928 170.414207,177.414208 170.662927,177.111152 170.84776,176.76536 170.961584,176.390176 171,175.999999 170.961584,175.609823 170.84776,175.23464 170.662928,174.888848 170.414208,174.585792 170.111152,174.337072 169.76536,174.152256 169.390176,174.038415 168.999999,174" style="fill: black" />
    <polygon slic3r:type="hole" points="85.609816,174.038416 85.234632,174.152256 84.888855,174.337072 84.585784,174.585791 84.337056,174.888847 84.15224,175.23464 84.038431,175.609824 84,176 84.038432,176.390176 84.15224,176.76536 84.337055,177.111151 84.585784,177.414208 84.888856,177.662928 85.234632,177.847744 85.609816,177.961584 86,178 86.390183,177.961584 86.765368,177.847744 87.111144,177.662927 87.414216,177.414208 87.662943,177.111152 87.84776,176.76536 87.961568,176.390175 88,175.999999 87.961567,175.609823 87.84776,175.234639 87.662944,174.888848 87.414216,174.585791 87.111144,174.337072 86.765367,174.152255 86.390183,174.038415 86,174" style="fill: black" />
    <polygon slic3r:type="hole" points="226.609823,126.038432 226.234639,126.15224 225.888848,126.337055 225.585791,126.585784 225.337072,126.888856 225.152255,127.234632 225.038415,127.609816 225,128 225.038416,128.390183 225.152256,128.765368 225.337072,129.111144 225.585791,129.414216 225.888847,129.662935 226.23464,129.84776 226.609823,129.961575 227,130 227.390176,129.961576 227.76536,129.84776 228.111151,129.662936 228.414207,129.414216 228.662928,129.111144 228.847744,128.765367 228.961584,128.390183 229,128 228.961584,127.609816 228.847744,127.234632 228.662927,126.888855 228.414208,126.585784 228.111152,126.337056 227.76536,126.15224 227.390175,126.038431 226.999999,126" style="fill: black" />
    <polygon slic3r:type="hole" points="168.609823,126.038432 168.234639,126.15224 167.888848,126.337055 167.585791,126.585784 167.337072,126.888856 167.152239,127.234632 167.038415,127.609816 167,128 167.038416,128.390184 167.15224,128.765368 167.337072,129.111144 167.585791,129.414216 167.888847,129.662935 168.23464,129.84776 168.609823,129.961575 169,130 169.390176,129.961576 169.76536,129.84776 170.111151,129.662936 170.414207,129.414216 170.662928,129.111144 170.84776,128.765367 170.961584,128.390183 171,128 170.961584,127.609816 170.84776,127.234632 170.662927,126.888855 170.414208,126.585784 170.111152,126.337056 169.76536,126.15224 169.390175,126.038431 168.999999,126" style="fill: black" />
    <polygon slic3r:type="hole" points="27.609817,126.038432 27.234634,126.152239 26.888862,126.337055 26.585783,126.585784 26.337059,126.888856 26.152243,127.234632 26.03843,127.609815 26,127.999999 26.03843,128.390184 26.152243,128.765367 26.33706,129.111144 26.585783,129.414215 26.888862,129.662936 27.234634,129.84776 27.609817,129.961575 27.999999,130 28.390182,129.961575 28.765365,129.84776 29.111138,129.662936 29.414216,129.414215 29.66294,129.111143 29.847756,128.765367 29.96157,128.390184 30,128 29.96157,127.609815 29.847756,127.234632 29.662939,126.888855 29.414216,126.585784 29.111138,126.337056 28.765366,126.15224 28.390182,126.038432 27.999999,126" style="fill: black" />
    <polygon slic3r:type="hole" points="85.609816,126.038432 85.234632,126.152239 84.888855,126.337056 84.585783,126.585784 84.337056,126.888856 84.15224,127.234631 84.038432,127.609816 83.999999,128 84.038432,128.390183 84.152239,128.765367 84.337056,129.111144 84.585784,129.414216 84.888856,129.662936 85.234632,129.84776 85.609815,129.961575 85.999999,130 86.390184,129.961576 86.765367,129.84776 87.111144,129.662935 87.414216,129.414215 87.662944,129.111144 87.847759,128.765368 87.961568,128.390184 88,128 87.961568,127.609816 87.84776,127.234632 87.662944,126.888855 87.414215,126.585783 87.111144,126.337056 86.765368,126.15224 86.390184,126.038432 86,125.999999" style="fill: black" />
    <polygon slic3r:type="hole" points="247.304895,1.519218 247.117312,1.576117 246.944431,1.668533 246.792896,1.792892 246.668527,1.944427 246.576112,2.117317 246.519232,2.304907 246.5,2.5 246.519232,2.695091 246.576111,2.882681 246.668528,3.055572 246.792896,3.207107 246.944432,3.331466 247.117312,3.423881 247.304896,3.480781 247.499999,3.5 247.695104,3.480781 247.882687,3.423881 248.055568,3.331466 248.207104,3.207106 248.331472,3.055571 248.423888,2.882682 248.480767,2.695091 248.499999,2.499999 248.480767,2.304907 248.423888,2.117317 248.331472,1.944427 248.207103,1.792891 248.055567,1.668532 247.882687,1.576117 247.695104,1.519217 247.499999,1.5" style="fill: black" />
    <polygon slic3r:type="hole" points="2.304908,1.519217 2.117317,1.576118 1.944427,1.668532 1.792891,1.792892 1.668533,1.944427 1.576118,2.117316 1.519217,2.304908 1.5,2.5 1.519217,2.69509 1.576118,2.882681 1.668532,3.055571 1.792891,3.207106 1.944427,3.331465 2.117316,3.423881 2.304908,3.480781 2.5,3.499999 2.69509,3.480781 2.882681,3.423881 3.055572,3.331466 3.207106,3.207107 3.331466,3.055571 3.423881,2.882682 3.480781,2.69509 3.5,2.499999 3.480781,2.304908 3.423881,2.117317 3.331466,1.944427 3.207107,1.792891 3.055571,1.668532 2.882682,1.576118 2.69509,1.519218 2.5,1.5" style="fill: black" />
  </g>
  <g id="layer4" slic3r:z="1.4e-06">
    <polygon slic3r:type="contour" points="250,185 0,185 0,0 250,0" style="fill: white" />
    <polygon slic3r:type="hole" points="247.304895,181.519232 247.117312,181.576111 246.944431,181.668528 246.792896,181.792896 246.668528,181.944431 246.576112,182.117312 246.519232,182.304896 246.5,182.5 246.519232,182.695104 246.576111,182.882687 246.668528,183.055568 246.792896,183.207104 246.944431,183.331471 247.117312,183.423888 247.304896,183.480768 247.5,183.5 247.695104,183.480768 247.882687,183.423888 248.055568,183.331471 248.207104,183.207103 248.331471,183.055568 248.423888,182.882687 248.480768,182.695104 248.5,182.5 248.480768,182.304895 248.423888,182.117312 248.331471,181.944431 248.207103,181.792895 248.055568,181.668528 247.882687,181.576112 247.695104,181.519232 247.5,181.5" style="fill: black" />
    <polygon slic3r:type="hole" points="2.304907,181.519232 2.117317,181.576112 1.944427,181.668527 1.792892,181.792896 1.668533,181.944431 1.576117,182.117312 1.519218,182.304895 1.5,182.499999 1.519217,182.695104 1.576117,182.882687 1.668532,183.055567 1.792891,183.207103 1.944426,183.331472 2.117317,183.423888 2.304907,183.480767 2.499999,183.499999 2.695091,183.480767 2.882682,183.423888 3.055571,183.331472 3.207106,183.207104 3.331466,183.055568 3.423881,182.882687 3.480781,182.695104 3.5,182.499999 3.480781,182.304895 3.423881,182.117312 3.331466,181.944432 3.207107,181.792896 3.055572,181.668528 2.882681,181.576111 2.695091,181.519232 2.5,181.5" style="fill: black" />
    <polygon slic3r:type="hole" points="226.609824,174.038415 226.234639,174.152256 225.888847,174.337072 225.585791,174.585792 225.337072,174.888848 225.152255,175.23464 225.038416,175.609823 225,175.999999 225.038415,176.390176 225.152256,176.76536 225.337072,177.111152 225.585792,177.414208 225.888848,177.662928 226.23464,177.847744 226.609823,177.961583 226.999999,178 227.390176,177.961584 227.76536,177.847744 228.111152,177.662928 228.414208,177.414207 228.662928,177.111151 228.847744,176.76536 228.961583,176.390176 229,176 228.961584,175.609824 228.847744,175.234639 228.662928,174.888847 228.414207,174.585791 228.111151,174.337072 227.76536,174.152255 227.390176,174.038416 227,174" style="fill: black" />
    <polygon slic3r:type="hole" points="85.609816,174.038415 85.234632,174.152255 84.888856,174.337072 84.585784,174.585791 84.337055,174.888848 84.15224,175.234639 84.038432,175.609823 84,175.999999 84.038431,176.390175 84.15224,176.76536 84.337056,177.111152 84.585784,177.414208 84.888855,177.662927 85.234632,177.847744 85.609816,177.961584 86,178 86.390183,177.961584 86.765367,177.847744 87.111144,177.662928 87.414216,177.414208 87.662944,177.111151 87.84776,176.76536 87.961567,176.390176 88,176 87.961568,175.609824 87.84776,175.23464 87.662943,174.888847 87.414216,174.585791 87.111144,174.337072 86.765368,174.152256 86.390183,174.038416 86,174" style="fill: black" />
    <polygon slic3r:type="hole" points="168.609824,174.038415 168.234639,174.152256 167.888847,174.337072 167.585791,174.585792 167.337072,174.888848 167.152239,175.23464 167.038416,175.609823 167,175.999999 167.038415,176.390176 167.15224,176.76536 167.337072,177.111152 167.585792,177.414208 167.888848,177.662928 168.23464,177.847744 168.609823,177.961583 168.999999,178 169.390176,177.961584 169.76536,177.847744 170.111152,177.662928 170.414208,177.414207 170.662928,177.111151 170.84776,176.76536 170.961584,176.390176 171,176 170.961584,175.609824 170.84776,175.23464 170.662927,174.888847 170.414207,174.585791 170.111151,174.337072 169.76536,174.152255 169.390176,174.038416 169,174" style="fill: black" />
    <polygon slic3r:type="hole" points="27.609818,174.038415 27.234634,174.152255 26.888862,174.337071 26.585783,174.585792 26.337059,174.888848 26.152244,175.234639 26.03843,175.609823 26,175.999999 26.038429,176.390175 26.152244,176.76536 26.33706,177.111152 26.585784,177.414208 26.888862,177.662928 27.234634,177.847744 27.609817,177.961584 27.999999,178 28.390181,177.961584 28.765365,177.847744 29.111137,177.662928 29.414216,177.414207 29.66294,177.111151 29.847756,176.76536 29.961569,176.390176 30,176 29.96157,175.609824 29.847755,175.234639 29.66294,174.888848 29.414215,174.585792 29.111138,174.337072 28.765366,174.152255 28.390182,174.038416 28,174" style="fill: black" />
    <polygon slic3r:type="hole" points="168.609824,126.038431 168.23464,126.15224 167.888847,126.337056 167.585791,126.585784 167.337072,126.888855 167.15224,127.234632 167.038416,127.609816 167,128 167.038415,128.390183 167.152239,128.765367 167.337072,129.111144 167.585792,129.414216 167.888848,129.662936 168.234639,129.84776 168.609823,129.961576 169,130 169.390176,129.961575 169.76536,129.84776 170.111152,129.662935 170.414208,129.414216 170.662927,129.111144 170.84776,128.765368 170.961584,128.390184 171,128 170.961584,127.609816 170.84776,127.234632 170.662928,126.888856 170.414208,126.585784 170.111151,126.337055 169.76536,126.15224 169.390176,126.038432 169,126" style="fill: black" />
    <polygon slic3r:type="hole" points="27.609818,126.038432 27.234633,126.15224 26.888862,126.337056 26.585783,126.585784 26.33706,126.888855 26.152243,127.234632 26.03843,127.609815 26,128 26.03843,128.390184 26.152243,128.765367 26.337059,129.111143 26.585783,129.414215 26.888862,129.662936 27.234634,129.84776 27.609817,129.961575 28,130 28.390182,129.961575 28.765365,129.84776 29.111138,129.662936 29.414216,129.414215 29.662939,129.111144 29.847756,128.765367 29.96157,128.390184 30,127.999999 29.96157,127.609815 29.847756,127.234632 29.66294,126.888856 29.414216,126.585784 29.111137,126.337055 28.765365,126.152239 28.390182,126.038432 28,126" style="fill: black" />
    <polygon slic3r:type="hole" points="226.609824,126.038431 226.23464,126.15224 225.888847,126.337056 225.585791,126.585784 225.337072,126.888855 225.152256,127.234632 225.038416,127.609816 225,128 225.038415,128.390183 225.152255,128.765367 225.337072,129.111144 225.585792,129.414216 225.888848,129.662936 226.234639,129.84776 226.609823,129.961576 227,130 227.390176,129.961575 227.76536,129.84776 228.111152,129.662935 228.414208,129.414216 228.662927,129.111144 228.847744,128.765368 228.961584,128.390183 229,128 228.961584,127.609816 228.847744,127.234632 228.662928,126.888856 228.414208,126.585784 228.111151,126.337055 227.76536,126.15224 227.390176,126.038432 227,126" style="fill: black" />
    <polygon slic3r:type="hole" points="85.609816,126.038432 85.234631,126.15224 84.888856,126.337056 84.585784,126.585783 84.337056,126.888855 84.152239,127.234632 84.038432,127.609816 83.999999,128 84.038432,128.390184 84.15224,128.765368 84.337056,129.111144 84.585783,129.414215 84.888855,129.662935 85.234632,129.84776 85.609816,129.961576 86,130 86.390184,129.961575 86.765367,129.84776 87.111144,129.662936 87.414215,129.414216 87.662944,129.111144 87.84776,128.765367 87.961568,128.390183 88,128 87.961568,127.609816 87.847759,127.234631 87.662944,126.888856 87.414216,126.585784 87.111144,126.337056 86.765367,126.152239 86.390183,126.038432 86,125.999999" style="fill: black" />
    <polygon slic3r:type="hole" points="2.304908,1.519217 2.117316,1.576118 1.944427,1.668533 1.792892,1.792891 1.668532,1.944427 1.576118,2.117317 1.519217,2.304908 1.5,2.5 1.519218,2.69509 1.576118,2.882682 1.668532,3.055571 1.792891,3.207107 1.944427,3.331466 2.117317,3.423881 2.304908,3.480781 2.499999,3.5 2.69509,3.480781 2.882682,3.423881 3.055571,3.331466 3.207107,3.207106 3.331466,3.055572 3.423881,2.882681 3.480781,2.69509 3.499999,2.5 3.480781,2.304908 3.423881,2.117316 3.331465,1.944427 3.207106,1.792891 3.055571,1.668532 2.882681,1.576118 2.69509,1.519217 2.5,1.5" style="fill: black" />
    <polygon slic3r:type="hole" points="247.304895,1.519217 247.117312,1.576117 246.944432,1.668532 246.792896,1.792891 246.668528,1.944427 246.576111,2.117317 246.519232,2.304907 246.5,2.499999 246.519232,2.695091 246.576112,2.882682 246.668527,3.055571 246.792896,3.207106 246.944432,3.331466 247.117312,3.423881 247.304896,3.480781 247.5,3.5 247.695104,3.480781 247.882687,3.423881 248.055567,3.331466 248.207103,3.207107 248.331471,3.055572 248.423888,2.882681 248.480767,2.695091 248.5,2.5 248.480768,2.304907 248.423888,2.117317 248.331472,1.944427 248.207104,1.792892 248.055568,1.668533 247.882687,1.576117 247.695104,1.519218 247.5,1.5" style="fill: black" />
  </g>
  <g id="layer5" slic3r:z="1.7e-06">
    <polygon slic3r:type="contour" points="250,185 0,185 0,0 250,0" style="fill: white" />
    <polygon slic3r:type="hole" points="247.304896,181.519231 247.117312,181.576112 246.944432,181.668528 246.792895,181.792896 246.668528,181.944432 246.576112,182.117311 246.519232,182.304895 246.5,182.499999 246.519231,182.695103 246.576112,182.882687 246.668528,183.055568 246.792896,183.207104 246.944432,183.331472 247.117312,183.423888 247.304895,183.480768 247.499999,183.5 247.695103,183.480768 247.882687,183.423888 248.055568,183.331471 248.207104,183.207103 248.331472,183.055568 248.423887,182.882688 248.480768,182.695104 248.5,182.5 248.480768,182.304896 248.423888,182.117312 248.331471,181.944432 248.207103,181.792895 248.055568,181.668528 247.882688,181.576112 247.695104,181.519232 247.5,181.5" style="fill: black" />
    <polygon slic3r:type="hole" points="2.304907,181.519232 2.117316,181.576112 1.944427,181.668528 1.792892,181.792895 1.668533,181.944432 1.576117,182.117312 1.519217,182.304895 1.5,182.499999 1.519218,182.695104 1.576117,182.882687 1.668533,183.055568 1.792892,183.207104 1.944427,183.331472 2.117317,183.423888 2.304908,183.480767 2.5,183.5 2.695091,183.480768 2.882682,183.423887 3.055572,183.331472 3.207106,183.207104 3.331466,183.055568 3.423881,182.882687 3.480781,182.695104 3.5,182.5 3.480781,182.304896 3.423881,182.117312 3.331465,181.944431 3.207106,181.792895 3.055571,181.668527 2.882682,181.576112 2.695091,181.519232 2.5,181.5" style="fill: black" />
    <polygon slic3r:type="hole" points="226.609823,174.038415 226.23464,174.152255 225.888847,174.337072 225.585792,174.585792 225.337072,174.888847 225.152256,175.23464 225.038416,175.609823 224.999999,176 225.038416,176.390176 225.152255,176.765359 225.337072,177.111152 225.585792,177.414208 225.888847,177.662927 226.23464,177.847744 226.609823,177.961584 227,178 227.390176,177.961584 227.765359,177.847744 228.111152,177.662928 228.414208,177.414208 228.662927,177.111152 228.847744,176.765359 228.961584,176.390176 229,176 228.961584,175.609823 228.847744,175.23464 228.662928,174.888847 228.414208,174.585792 228.111152,174.337072 227.765359,174.152256 227.390176,174.038416 227,173.999999" style="fill: black" />
    <polygon slic3r:type="hole" points="168.609823,174.038415 168.23464,174.152255 167.888847,174.337072 167.585792,174.585792 167.337072,174.888847 167.152239,175.23464 167.038416,175.609823 166.999999,176 167.038415,176.390176 167.152239,176.765359 167.337072,177.111152 167.585792,177.414208 167.888847,177.662927 168.23464,177.847744 168.609823,177.961584 169,178 169.390176,177.961584 169.765359,177.847744 170.111152,177.662928 170.414208,177.414208 170.662927,177.111152 170.84776,176.765359 170.961584,176.390176 171,176 170.961584,175.609823 170.84776,175.23464 170.662928,174.888847 170.414208,174.585792 170.111152,174.337072 169.765359,174.152256 169.390176,174.038416 169,173.999999" style="fill: black" />
    <polygon slic3r:type="hole" points="27.609817,174.038416 27.234634,174.152255 26.888862,174.337071 26.585783,174.585792 26.337059,174.888848 26.152243,175.23464 26.03843,175.609823 26,176 26.03843,176.390176 26.152243,176.765359 26.33706,177.111152 26.585784,177.414208 26.888862,177.662928 27.234634,177.847744 27.609818,177.961584 28,178 28.390182,177.961584 28.765365,177.847744 29.111137,177.662928 29.414216,177.414207 29.66294,177.111151 29.847756,176.765359 29.96157,176.390176 30,175.999999 29.961569,175.609823 29.847756,175.23464 29.662939,174.888847 29.414216,174.585792 29.111137,174.337071 28.765366,174.152256 28.390182,174.038415 27.999999,173.999999" style="fill: black" />
    <polygon slic3r:type="hole" points="85.609816,174.038416 85.234632,174.152256 84.888856,174.337071 84.585783,174.585792 84.337056,174.888848 84.152239,175.23464 84.038432,175.609824 84,176 84.038432,176.390176 84.152239,176.765359 84.337056,177.111152 84.585784,177.414207 84.888856,177.662928 85.234631,177.847743 85.609816,177.961584 86,178 86.390183,177.961584 86.765368,177.847744 87.111143,177.662928 87.414216,177.414207 87.662943,177.111152 87.84776,176.765359 87.961568,176.390176 88,176 87.961568,175.609823 87.84776,175.23464 87.662943,174.888847 87.414216,174.585792 87.111143,174.337072 86.765368,174.152256 86.390183,174.038415 85.999999,174" style="fill: black" />
    <polygon slic3r:type="hole" points="27.609818,126.038432 27.234634,126.152239 26.888862,126.337055 26.585784,126.585783 26.337059,126.888856 26.152244,127.234631 26.03843,127.609815 26,128 26.03843,128.390184 26.152244,128.765368 26.337059,129.111143 26.585783,129.414215 26.888861,129.662936 27.234633,129.847759 27.609818,129.961576 28,130 28.390181,129.961576 28.765366,129.84776 29.111137,129.662936 29.414215,129.414216 29.66294,129.111144 29.847755,128.765368 29.96157,128.390184 30,127.999999 29.961569,127.609816 29.847756,127.234632 29.66294,126.888856 29.414216,126.585784 29.111138,126.337056 28.765366,126.15224 28.390182,126.038432 28,126" style="fill: black" />
    <polygon slic3r:type="hole" points="85.609815,126.038432 85.234631,126.15224 84.888856,126.337055 84.585784,126.585783 84.337055,126.888856 84.15224,127.234631 84.038431,127.609816 84,128 84.038432,128.390184 84.15224,128.765368 84.337055,129.111143 84.585783,129.414215 84.888855,129.662936 85.234631,129.84776 85.609816,129.961576 86,130 86.390184,129.961576 86.765368,129.847759 87.111143,129.662936 87.414215,129.414216 87.662944,129.111143 87.84776,128.765368 87.961568,128.390183 88,127.999999 87.961568,127.609815 87.847759,127.234631 87.662944,126.888856 87.414216,126.585784 87.111143,126.337055 86.765368,126.15224 86.390183,126.038431 85.999999,126" style="fill: black" />
    <polygon slic3r:type="hole" points="226.609823,126.038432 226.23464,126.152239 225.888847,126.337056 225.585792,126.585784 225.337072,126.888856 225.152256,127.234631 225.038415,127.609816 225,128 225.038416,128.390183 225.152256,128.765368 225.337071,129.111143 225.585792,129.414216 225.888848,129.662936 226.23464,129.84776 226.609824,129.961576 227,130 227.390176,129.961576 227.76536,129.84776 228.111152,129.662935 228.414207,129.414216 228.662928,129.111143 228.847743,128.765368 228.961584,128.390183 229,127.999999 228.961584,127.609816 228.847744,127.234632 228.662928,126.888856 228.414207,126.585783 228.111152,126.337056 227.765359,126.152239 227.390176,126.038432 227,126" style="fill: black" />
    <polygon slic3r:type="hole" points="168.609823,126.038432 168.23464,126.152239 167.888847,126.337056 167.585792,126.585784 167.337072,126.888856 167.15224,127.234632 167.038415,127.609816 167,128 167.038416,128.390183 167.15224,128.765368 167.337072,129.111143 167.585792,129.414216 167.888848,129.662936 168.23464,129.84776 168.609824,129.961576 169,130 169.390176,129.961576 169.76536,129.84776 170.111152,129.662935 170.414207,129.414216 170.662928,129.111143 170.84776,128.765368 170.961584,128.390183 171,127.999999 170.961584,127.609816 170.847759,127.234631 170.662928,126.888856 170.414207,126.585783 170.111152,126.337056 169.765359,126.152239 169.390176,126.038432 169,126" style="fill: black" />
    <polygon slic3r:type="hole" points="247.304896,1.519218 247.117312,1.576117 246.944431,1.668533 246.792895,1.792892 246.668527,1.944427 246.576112,2.117317 246.519232,2.304908 246.5,2.5 246.519232,2.695091 246.576112,2.882682 246.668528,3.055572 246.792895,3.207106 246.944432,3.331466 247.117312,3.423881 247.304895,3.480781 247.499999,3.5 247.695104,3.480781 247.882687,3.423881 248.055568,3.331465 248.207104,3.207106 248.331472,3.055571 248.423888,2.882682 248.480767,2.695091 248.499999,2.499999 248.480767,2.304907 248.423887,2.117316 248.331472,1.944427 248.207104,1.792892 248.055568,1.668533 247.882687,1.576117 247.695104,1.519217 247.5,1.5" style="fill: black" />
    <polygon slic3r:type="hole" points="2.304907,1.519217 2.117317,1.576118 1.944427,1.668532 1.792892,1.792892 1.668533,1.944427 1.576117,2.117317 1.519218,2.304908 1.5,2.499999 1.519218,2.695091 1.576118,2.882681 1.668532,3.055571 1.792892,3.207106 1.944427,3.331465 2.117317,3.423881 2.304908,3.480781 2.499999,3.5 2.695091,3.480781 2.882681,3.423881 3.055571,3.331466 3.207106,3.207107 3.331465,3.055572 3.423881,2.882681 3.480781,2.695091 3.5,2.5 3.480781,2.304907 3.423881,2.117317 3.331466,1.944427 3.207107,1.792892 3.055572,1.668533 2.882681,1.576117 2.695091,1.519218 2.5,1.5" style="fill: black" />
  </g>
  <g id="layer6" slic3r:z="2e-06">
    <polygon slic3r:type="contour" points="250,185 0,185 0,0 250,0" style="fill: white" />
    <polygon slic3r:type="hole" points="247.304896,181.519231 247.117312,181.576112 246.944432,181.668527 246.792895,181.792896 246.668527,181.944432 246.576112,182.117311 246.519232,182.304895 246.5,182.499999 246.519231,182.695103 246.576112,182.882688 246.668527,183.055567 246.792896,183.207104 246.944432,183.331472 247.117311,183.423888 247.304895,183.480767 247.499999,183.5 247.695103,183.480768 247.882688,183.423888 248.055567,183.331472 248.207104,183.207103 248.331472,183.055567 248.423888,182.882688 248.480767,182.695104 248.5,182.5 248.480768,182.304896 248.423888,182.117312 248.331472,181.944432 248.207103,181.792895 248.055567,181.668527 247.882688,181.576112 247.695104,181.519232 247.5,181.5" style="fill: black" />
    <polygon slic3r:type="hole" points="2.304908,181.519232 2.117317,181.576111 1.944427,181.668527 1.792892,181.792895 1.668533,181.944432 1.576118,182.117312 1.519218,182.304896 1.5,182.5 1.519217,182.695103 1.576118,182.882687 1.668532,183.055567 1.792891,183.207103 1.944427,183.331471 2.117317,183.423888 2.304907,183.480768 2.499999,183.499999 2.695091,183.480768 2.882681,183.423888 3.055571,183.331472 3.207107,183.207104 3.331466,183.055568 3.42388,182.882688 3.480781,182.695104 3.5,182.5 3.480781,182.304896 3.423881,182.117312 3.331466,181.944432 3.207107,181.792896 3.055572,181.668528 2.882681,181.576111 2.695091,181.519232 2.5,181.5" style="fill: black" />
    <polygon slic3r:type="hole" points="226.609823,174.038416 226.234639,174.152256 225.888847,174.337072 225.585791,174.585792 225.337072,174.888847 225.152256,175.23464 225.038416,175.609824 225,175.999999 225.038416,176.390176 225.152256,176.76536 225.337072,177.111152 225.585792,177.414208 225.888847,177.662928 226.23464,177.847744 226.609824,177.961584 226.999999,178 227.390176,177.961584 227.76536,177.847743 228.111152,177.662927 228.414208,177.414207 228.662928,177.111152 228.847744,176.76536 228.961584,176.390175 229,176 228.961584,175.609823 228.847743,175.234639 228.662928,174.888847 228.414207,174.585791 228.111152,174.337072 227.76536,174.152256 227.390175,174.038416 227,174" style="fill: black" />
    <polygon slic3r:type="hole" points="85.609815,174.038416 85.234631,174.152256 84.888856,174.337071 84.585784,174.585792 84.337056,174.888847 84.15224,175.234639 84.038432,175.609823 83.999999,175.999999 84.038431,176.390175 84.152239,176.765359 84.337055,177.111151 84.585783,177.414207 84.888856,177.662928 85.234632,177.847744 85.609816,177.961584 85.999999,178 86.390184,177.961583 86.765368,177.847743 87.111143,177.662928 87.414216,177.414208 87.662944,177.111152 87.847759,176.76536 87.961568,176.390176 88,176 87.961568,175.609824 87.84776,175.23464 87.662944,174.888848 87.414216,174.585792 87.111143,174.337071 86.765367,174.152256 86.390183,174.038416 86,174" style="fill: black" />
    <polygon slic3r:type="hole" points="168.609823,174.038416 168.234639,174.152256 167.888847,174.337072 167.585791,174.585792 167.337072,174.888847 167.152239,175.23464 167.038416,175.609824 167,175.999999 167.038416,176.390176 167.15224,176.76536 167.337072,177.111152 167.585792,177.414208 167.888847,177.662928 168.23464,177.847744 168.609824,177.961584 168.999999,178 169.390176,177.961584 169.76536,177.847743 170.111152,177.662927 170.414208,177.414207 170.662928,177.111152 170.84776,176.76536 170.961584,176.390175 171,176 170.961584,175.609824 170.847759,175.234639 170.662927,174.888847 170.414207,174.585791 170.111152,174.337072 169.76536,174.152256 169.390175,174.038416 169,174" style="fill: black" />
    <polygon slic3r:type="hole" points="27.609818,174.038415 27.234634,174.152255 26.888861,174.337072 26.585784,174.585791 26.337059,174.888848 26.152243,175.23464 26.03843,175.609823 26,175.999999 26.03843,176.390175 26.152244,176.765359 26.33706,177.111152 26.585784,177.414208 26.888861,177.662928 27.234634,177.847744 27.609817,177.961584 27.999999,178 28.390181,177.961584 28.765365,177.847744 29.111138,177.662927 29.414216,177.414208 29.66294,177.111152 29.847756,176.765359 29.96157,176.390176 30,176 29.96157,175.609824 29.847756,175.23464 29.662939,174.888847 29.414216,174.585791 29.111138,174.337072 28.765366,174.152255 28.390182,174.038416 28,174" style="fill: black" />
    <polygon slic3r:type="hole" points="27.609818,126.038431 27.234634,126.152239 26.888861,126.337056 26.585783,126.585784 26.337059,126.888856 26.152243,127.234632 26.03843,127.609815 26,128 26.03843,128.390184 26.152243,128.765368 26.33706,129.111144 26.585784,129.414216 26.888862,129.662936 27.234633,129.84776 27.609818,129.961576 27.999999,130 28.390181,129.961576 28.765365,129.84776 29.111138,129.662935 29.414216,129.414215 29.66294,129.111143 29.847756,128.765367 29.96157,128.390184 30,127.999999 29.961569,127.609815 29.847756,127.234632 29.662939,126.888855 29.414216,126.585783 29.111138,126.337056 28.765365,126.152239 28.390182,126.038432 28,126" style="fill: black" />
    <polygon slic3r:type="hole" points="168.609824,126.038431 168.23464,126.152239 167.888848,126.337055 167.585792,126.585783 167.337072,126.888855 167.152239,127.234632 167.038416,127.609816 167,127.999999 167.038416,128.390184 167.15224,128.765368 167.337071,129.111143 167.585792,129.414216 167.888847,129.662936 168.23464,129.84776 168.609823,129.961576 168.999999,130 169.390176,129.961576 169.765359,129.84776 170.111152,129.662935 170.414207,129.414216 170.662927,129.111144 170.84776,128.765368 170.961584,128.390183 171,128 170.961584,127.609815 170.84776,127.234632 170.662928,126.888856 170.414208,126.585784 170.111152,126.337056 169.76536,126.15224 169.390176,126.038432 169,125.999999" style="fill: black" />
    <polygon slic3r:type="hole" points="226.609824,126.038431 226.23464,126.152239 225.888848,126.337055 225.585792,126.585783 225.337071,126.888856 225.152256,127.234632 225.038416,127.609816 225,127.999999 225.038416,128.390184 225.152256,128.765368 225.337071,129.111143 225.585792,129.414216 225.888847,129.662936 226.23464,129.84776 226.609823,129.961576 226.999999,130 227.390176,129.961576 227.765359,129.84776 228.111152,129.662935 228.414207,129.414216 228.662928,129.111143 228.847744,128.765367 228.961584,128.390183 229,128 228.961583,127.609815 228.847743,127.234631 228.662928,126.888856 228.414208,126.585784 228.111152,126.337056 227.76536,126.15224 227.390176,126.038432 227,125.999999" style="fill: black" />
    <polygon slic3r:type="hole" points="85.609815,126.038432 85.234632,126.15224 84.888856,126.337055 84.585784,126.585783 84.337055,126.888856 84.15224,127.234631 84.038432,127.609815 83.999999,128 84.038432,128.390184 84.15224,128.765367 84.337055,129.111143 84.585783,129.414215 84.888856,129.662936 85.234632,129.84776 85.609815,129.961575 85.999999,129.999999 86.390184,129.961576 86.765368,129.84776 87.111143,129.662936 87.414215,129.414216 87.662944,129.111143 87.847759,128.765368 87.961568,128.390184 88,128 87.961568,127.609816 87.84776,127.234632 87.662944,126.888856 87.414216,126.585784 87.111143,126.337055 86.765368,126.15224 86.390184,126.038432 86,125.999999" style="fill: black" />
    <polygon slic3r:type="hole" points="247.304896,1.519217 247.117312,1.576118 246.944432,1.668532 246.792896,1.792891 246.668528,1.944427 246.576111,2.117317 246.519232,2.304907 246.5,2.499999 246.519232,2.695091 246.576111,2.882681 246.668527,3.055571 246.792896,3.207107 246.944432,3.331466 247.117312,3.42388 247.304895,3.480781 247.5,3.5 247.695103,3.480781 247.882687,3.423881 248.055567,3.331466 248.207103,3.207107 248.331471,3.055572 248.423888,2.882681 248.480768,2.695091 248.5,2.5 248.480768,2.304908 248.423888,2.117317 248.331472,1.944427 248.207104,1.792892 248.055568,1.668533 247.882688,1.576118 247.695104,1.519218 247.5,1.5" style="fill: black" />
    <polygon slic3r:type="hole" points="2.304907,1.519218 2.117317,1.576117 1.944427,1.668533 1.792892,1.792892 1.668532,1.944427 1.576118,2.117317 1.519218,2.304907 1.5,2.5 1.519217,2.69509 1.576117,2.882681 1.668533,3.055571 1.792892,3.207107 1.944426,3.331466 2.117317,3.423881 2.304907,3.48078 2.499999,3.499999 2.69509,3.480781 2.882681,3.423881 3.055571,3.331466 3.207107,3.207107 3.331466,3.055572 3.423881,2.882682 3.48078,2.695091 3.5,2.5 3.480781,2.304907 3.423881,2.117317 3.331466,1.944427 3.207106,1.792892 3.055571,1.668532 2.882682,1.576118 2.695091,1.519218 2.5,1.5" style="fill: black" />
  </g>
  <g id="layer7" slic3r:z="2.3e-06">
    <polygon slic3r:type="contour" points="250,185 0,185 0,0 250,0" style="fill: white" />
    <polygon slic3r:type="hole" points="2.304908,181.519232 2.117317,181.576111 1.944427,181.668528 1.792891,181.792896 1.668533,181.944431 1.576118,182.117312 1.519218,182.304896 1.499999,182.5 1.519218,182.695104 1.576117,182.882687 1.668533,183.055568 1.792892,183.207104 1.944427,183.331472 2.117316,183.423888 2.304908,183.480768 2.5,183.5 2.695091,183.480768 2.882681,183.423888 3.055572,183.331472 3.207107,183.207103 3.331466,183.055568 3.423881,182.882687 3.480781,182.695104 3.5,182.5 3.480781,182.304896 3.423881,182.117312 3.331465,181.944431 3.207106,181.792896 3.055571,181.668527 2.882682,181.576112 2.69509,181.519231 2.499999,181.5" style="fill: black" />
    <polygon slic3r:type="hole" points="247.304896,181.519231 247.117311,181.576112 246.944431,181.668528 246.792896,181.792896 246.668528,181.944431 246.576111,182.117312 246.519232,182.304896 246.5,182.499999 246.519231,182.695104 246.576112,182.882688 246.668528,183.055568 246.792896,183.207103 246.944431,183.331471 247.117312,183.423888 247.304896,183.480767 247.499999,183.499999 247.695104,183.480768 247.882688,183.423887 248.055567,183.331472 248.207103,183.207104 248.331471,183.055568 248.423888,182.882687 248.480767,182.695104 248.499999,182.5 248.480768,182.304896 248.423887,182.117311 248.331471,181.944431 248.207104,181.792896 248.055568,181.668528 247.882687,181.576111 247.695103,181.519232 247.5,181.5" style="fill: black" />
    <polygon slic3r:type="hole" points="168.609824,174.038415 168.23464,174.152255 167.888847,174.337072 167.585791,174.585792 167.337071,174.888848 167.152239,175.23464 167.038416,175.609823 167,175.999999 167.038416,176.390176 167.15224,176.76536 167.337072,177.111152 167.585792,177.414208 167.888848,177.662928 168.234639,177.847743 168.609823,177.961583 168.999999,178 169.390175,177.961584 169.765359,177.847744 170.111152,177.662927 170.414208,177.414207 170.662928,177.111151 170.84776,176.765359 170.961583,176.390176 171,176 170.961583,175.609823 170.84776,175.23464 170.662928,174.888848 170.414207,174.585791 170.111151,174.337072 169.76536,174.152256 169.390176,174.038416 169,174" style="fill: black" />
    <polygon slic3r:type="hole" points="226.609824,174.038415 226.23464,174.152255 225.888847,174.337072 225.585791,174.585792 225.337072,174.888848 225.152256,175.234639 225.038416,175.609823 225,175.999999 225.038415,176.390175 225.152255,176.765359 225.337072,177.111152 225.585792,177.414208 225.888848,177.662928 226.234639,177.847743 226.609823,177.961583 226.999999,178 227.390175,177.961584 227.765359,177.847744 228.111152,177.662927 228.414208,177.414207 228.662928,177.111151 228.847743,176.76536 228.961583,176.390176 229,176 228.961584,175.609824 228.847744,175.23464 228.662927,174.888847 228.414207,174.585791 228.111151,174.337072 227.76536,174.152256 227.390176,174.038416 227,174" style="fill: black" />
    <polygon slic3r:type="hole" points="27.609817,174.038416 27.234633,174.152256 26.888862,174.337071 26.585784,174.585792 26.33706,174.888847 26.152244,175.234639 26.03843,175.609824 25.999999,175.999999 26.038429,176.390175 26.152244,176.765359 26.33706,177.111152 26.585783,177.414207 26.888862,177.662928 27.234634,177.847744 27.609818,177.961584 28,178 28.390182,177.961584 28.765366,177.847743 29.111137,177.662928 29.414216,177.414208 29.662939,177.111152 29.847756,176.76536 29.96157,176.390175 30,176 29.96157,175.609824 29.847756,175.23464 29.66294,174.888847 29.414216,174.585792 29.111137,174.337071 28.765366,174.152256 28.390181,174.038416 27.999999,174" style="fill: black" />
    <polygon slic3r:type="hole" points="85.609816,174.038415 85.234631,174.152256 84.888856,174.337072 84.585784,174.585791 84.337056,174.888847 84.152239,175.23464 84.038432,175.609823 84,175.999999 84.038431,176.390176 84.15224,176.765359 84.337055,177.111151 84.585783,177.414207 84.888856,177.662928 85.234631,177.847744 85.609816,177.961584 86,178 86.390183,177.961584 86.765368,177.847744 87.111143,177.662928 87.414215,177.414208 87.662943,177.111152 87.84776,176.765359 87.961567,176.390176 88,176 87.961568,175.609823 87.84776,175.23464 87.662944,174.888848 87.414216,174.585792 87.111143,174.337071 86.765368,174.152256 86.390183,174.038416 85.999999,174" style="fill: black" />
    <polygon slic3r:type="hole" points="226.609823,126.038431 226.23464,126.15224 225.888848,126.337055 225.585792,126.585783 225.337071,126.888856 225.152256,127.234631 225.038416,127.609816 225,128 225.038415,128.390183 225.152256,128.765368 225.337072,129.111143 225.585791,129.414215 225.888848,129.662936 226.23464,129.84776 226.609823,129.961576 226.999999,130 227.390176,129.961576 227.76536,129.84776 228.111151,129.662936 228.414207,129.414216 228.662928,129.111143 228.847744,128.765368 228.961584,128.390183 229,127.999999 228.961584,127.609816 228.847744,127.234631 228.662928,126.888856 228.414208,126.585784 228.111152,126.337056 227.765359,126.152239 227.390176,126.038432 227,126" style="fill: black" />
    <polygon slic3r:type="hole" points="168.609823,126.038431 168.23464,126.15224 167.888848,126.337055 167.585792,126.585783 167.337072,126.888855 167.152239,127.234632 167.038416,127.609816 167,128 167.038416,128.390184 167.15224,128.765367 167.337071,129.111143 167.585791,129.414215 167.888848,129.662936 168.23464,129.84776 168.609823,129.961576 168.999999,130 169.390176,129.961576 169.76536,129.84776 170.111151,129.662936 170.414207,129.414216 170.662927,129.111144 170.84776,128.765367 170.961584,128.390183 171,127.999999 170.961583,127.609815 170.84776,127.234632 170.662928,126.888856 170.414208,126.585784 170.111152,126.337056 169.765359,126.152239 169.390176,126.038432 169,126" style="fill: black" />
    <polygon slic3r:type="hole" points="85.609815,126.038432 85.234631,126.15224 84.888855,126.337056 84.585783,126.585784 84.337055,126.888856 84.152239,127.234632 84.038432,127.609815 84,128 84.038432,128.390184 84.15224,128.765368 84.337056,129.111144 84.585784,129.414216 84.888856,129.662936 85.234632,129.84776 85.609815,129.961576 85.999999,130 86.390184,129.961576 86.765367,129.84776 87.111144,129.662935 87.414216,129.414215 87.662944,129.111143 87.84776,128.765367 87.961568,128.390184 88,127.999999 87.961567,127.609815 87.84776,127.234631 87.662943,126.888855 87.414215,126.585783 87.111143,126.337055 86.765367,126.152239 86.390184,126.038432 85.999999,126" style="fill: black" />
    <polygon slic3r:type="hole" points="27.609818,126.038432 27.234633,126.15224 26.888862,126.337055 26.585784,126.585784 26.337059,126.888856 26.152244,127.234632 26.038429,127.609816 26,128 26.03843,128.390183 26.152244,128.765368 26.33706,129.111144 26.585784,129.414216 26.888862,129.662936 27.234633,129.84776 27.609818,129.961576 28,130 28.390182,129.961576 28.765366,129.847759 29.111137,129.662936 29.414216,129.414215 29.66294,129.111144 29.847756,128.765368 29.96157,128.390183 30,127.999999 29.96157,127.609816 29.847756,127.234631 29.66294,126.888855 29.414215,126.585784 29.111137,126.337055 28.765366,126.15224 28.390181,126.038432 27.999999,126" style="fill: black" />
    <polygon slic3r:type="hole" points="247.304896,1.519218 247.117312,1.576117 246.944431,1.668533 246.792896,1.792892 246.668527,1.944427 246.576112,2.117316 246.519231,2.304908 246.5,2.5 246.519232,2.695091 246.576111,2.882681 246.668528,3.055572 246.792896,3.207107 246.944432,3.331466 247.117312,3.423881 247.304896,3.480781 247.499999,3.5 247.695103,3.480781 247.882688,3.423881 248.055568,3.331465 248.207104,3.207106 248.331472,3.055571 248.423888,2.882682 248.480768,2.69509 248.5,2.499999 248.480768,2.304908 248.423888,2.117317 248.331472,1.944427 248.207103,1.792891 248.055568,1.668533 247.882687,1.576118 247.695103,1.519218 247.499999,1.499999" style="fill: black" />
    <polygon slic3r:type="hole" points="2.304908,1.519218 2.117316,1.576118 1.944427,1.668532 1.792892,1.792891 1.668533,1.944427 1.576118,2.117316 1.519218,2.304908 1.5,2.499999 1.519218,2.69509 1.576118,2.882682 1.668532,3.055571 1.792892,3.207107 1.944427,3.331466 2.117316,3.42388 2.304908,3.480781 2.499999,3.5 2.69509,3.480781 2.882682,3.42388 3.055572,3.331465 3.207107,3.207107 3.331466,3.055571 3.423881,2.882682 3.480781,2.69509 3.5,2.5 3.480781,2.304908 3.42388,2.117316 3.331465,1.944426 3.207107,1.792892 3.055572,1.668533 2.882681,1.576118 2.69509,1.519218 2.5,1.5" style="fill: black" />
  </g>
</svg>
